<?xml version="1.0" encoding="UTF-8" standalone="no"?>
<svg
   width="397.72473"
   height="407.12701"
   viewBox="0 0 397.72474 407.127"
   version="1.1"
   id="svg25"
   sodipodi:docname="undraw_compose_music_re_wpiw.svg"
   xmlns:inkscape="http://www.inkscape.org/namespaces/inkscape"
   xmlns:sodipodi="http://sodipodi.sourceforge.net/DTD/sodipodi-0.dtd"
   xmlns="http://www.w3.org/2000/svg"
   xmlns:svg="http://www.w3.org/2000/svg">
  <defs
     id="defs25" />
  <sodipodi:namedview
     id="namedview25"
     pagecolor="#ffffff"
     bordercolor="#000000"
     borderopacity="0.25"
     inkscape:showpageshadow="2"
     inkscape:pageopacity="0.0"
     inkscape:pagecheckerboard="0"
     inkscape:deskcolor="#d1d1d1"
     inkscape:export-bgcolor="#ffffff00" />
  <g
     id="g1">
    <polygon
       points="158.4897,364.47332 172.28134,364.47429 172.27946,400.51778 162.93495,400.51687 "
       fill="#a0616a"
       id="polygon1"
       style="fill:#ffdbac;fill-opacity:1" />
    <path
       d="m 140.26397,400.3058 v 0 c -0.29096,0.49002 -0.44448,2.0716 -0.44448,2.64146 v 0 c 0,1.75159 1.41992,3.17157 3.17157,3.17157 h 28.93888 c 1.19492,0 2.16366,-0.96868 2.16366,-2.16366 v -1.20482 c 0,0 1.43158,-3.62111 -1.51579,-8.08432 0,0 -3.66318,3.49476 -9.13692,-1.97897 l -1.61416,-2.92417 -11.68427,8.54529 -6.47641,0.79718 c -1.41691,0.17439 -2.67313,-0.0271 -3.40197,1.20044 z"
       fill="#2f2e41"
       id="path1" />
  </g>
  <g
     id="g25">
    <polygon
       points="130.41116,400.51778 121.06664,400.51687 116.6214,364.47332 130.41303,364.47429 "
       fill="#a0616a"
       id="polygon2"
       style="fill:#ffdbac;fill-opacity:1" />
    <path
       d="m 98.39566,400.3058 v 0 c -0.29096,0.49002 -0.44448,2.0716 -0.44448,2.64146 v 0 c 0,1.75159 1.41992,3.17157 3.17157,3.17157 h 28.93888 c 1.19492,0 2.16366,-0.96868 2.16366,-2.16366 v -1.20482 c 0,0 1.43158,-3.62111 -1.51579,-8.08432 0,0 -3.66318,3.49476 -9.13692,-1.97897 l -1.61416,-2.92417 -11.68427,8.54529 -6.47641,0.79718 c -1.41691,0.17439 -2.67313,-0.0271 -3.40197,1.20044 z"
       fill="#2f2e41"
       id="path2" />
  </g>
  <polygon
     points="174.98494,374.76097 155.95389,374.76097 138.82595,214.08455 134.74787,375.30472 116.26056,374.76097 96.14202,195.86912 109.46376,179.82867 173.08183,174.39122 181.78174,196.68474 "
     fill="#2f2e41"
     id="polygon3" />
  <path
     d="m 132.02914,47.97069 22.83726,-1.63123 7.06867,11.41863 21.20602,5.98119 -7.88429,55.19004 8.42804,82.37725 c 0,0 -30.44968,-4.34995 -32.62465,4.34995 -2.17497,8.6999 -55.46191,-8.69991 -55.46191,-8.69991 l 18.21543,-56.27753 -1.63123,-44.04328 -4.8937,-25.55598 22.29351,-10.33114 z"
     fill="#e6e6e6"
     id="path3" />
  <path
     d="m 121.698,64.28302 c 0,0 -18.19831,-0.27187 -20.65372,7.34055 -2.45541,7.61242 -10.61158,60.35561 -10.61158,60.35561 l -6.25306,23.10913 28.00283,-13.86548 -5.98119,-9.22867 19.57479,-37.53334 -4.07808,-30.1778 z"
     fill="#e6e6e6"
     id="path4" />
  <path
     d="m 132.83109,148.83523 c 3.00898,0.003 5.80637,-1.73113 6.97623,-4.50338 0.88472,-2.09655 0.8013,-4.10808 0.1393,-5.83266 0.21303,-0.0883 0.42424,-0.18014 0.64234,-0.2582 -0.32043,-0.12983 -0.63182,-0.27652 -0.94302,-0.42347 -1.08394,-2.16037 -3.16204,-3.72815 -5.63716,-4.10895 -3.06588,-3.28413 -4.95041,-7.68465 -4.97007,-12.52775 -0.0405,-9.98147 8.05643,-18.31897 18.03512,-18.55841 0.0786,-0.002 0.15702,-0.003 0.23537,-0.004 4.46835,-0.0515 8.52179,2.44805 10.78569,6.30078 1.321,2.2481 3.76211,3.75724 6.55892,3.75724 2.14111,0 4.07268,-0.88519 5.45336,-2.30907 3.00816,-3.10226 6.77491,-5.41059 11.03773,-6.11873 2.79944,-0.46504 5.69678,-0.6405 8.66117,-0.49313 20.29266,1.00876 37.75121,18.99389 38.18456,39.30699 0.48266,22.62446 -17.713,41.1163 -40.22769,41.1163 -11.71516,0 -22.25584,-5.00994 -29.60706,-13.00176 -3.26368,-3.54807 -7.83707,-5.53552 -12.65765,-5.4863 -0.049,5e-4 -0.0982,7.5e-4 -0.14733,7.5e-4 -7.80783,0 -14.13735,-6.32952 -14.13735,-14.13735 0,-0.43302 0.0215,-0.86074 0.0619,-1.28301 0.0755,-0.78956 0.76252,-1.43655 1.55569,-1.43573 v 0 z"
     fill="#202046"
     id="path5" />
  <g
     id="g12">
    <path
       d="m 395.81652,299.39217 c -0.98768,-1.66544 -5.26054,0.11777 -6.04609,-1.39368 -0.78277,-1.506 3.18724,-3.80066 5.45536,-9.04262 0.40902,-0.94533 2.98659,-6.90244 1.07842,-8.74062 -3.61682,-3.48419 -20.16758,10.89424 -25.95964,6.18894 -1.27113,-1.0326 -2.15915,-3.09405 -6.00631,-6.44093 -1.53047,-1.33144 -2.45593,-1.93261 -3.35157,-1.70894 -1.27084,0.31733 -1.37158,2.01824 -2.73431,5.36252 -2.04369,5.01544 -3.25251,4.7126 -4.44325,8.71409 -0.88394,2.97053 -0.68203,4.69751 -1.72221,5.03399 -1.47194,0.47615 -2.8268,-2.67464 -4.6922,-2.39252 -1.90357,0.28792 -3.05439,3.95645 -3.41789,6.70315 -0.68214,5.15439 1.21075,8.5556 2.25989,12.13198 1.14014,3.88661 1.8168,9.79735 -0.8162,18.16481 l -26.06075,73.42634 c 5.7534,-15.06687 22.41225,-56.36918 29.41232,-71.7174 2.02076,-4.4307 4.25202,-8.9248 8.83345,-10.69851 4.41082,-1.7077 10.46849,-0.68815 18.19133,-2.54863 0.90196,-0.21725 3.40484,-0.85406 3.71989,-2.32621 0.26045,-1.21708 -1.21178,-1.89641 -0.98558,-3.03631 0.30341,-1.52901 3.19852,-1.54776 6.7562,-3.31179 2.50866,-1.2439 4.07156,-2.72322 5.41557,-3.99536 0.40521,-0.38353 6.42839,-6.15529 5.11357,-8.3723 z"
       fill="#f2f2f2"
       id="path6" />
    <path
       d="m 293.28575,338.04689 c -1.10238,0.004 -1.46003,2.61589 -2.42852,2.56534 -0.96501,-0.0503 -0.94577,-2.66093 -2.86413,-5.28661 -0.34596,-0.47351 -2.52604,-3.45741 -3.9788,-3.05124 -2.75363,0.76986 -0.47203,13.04172 -4.45261,14.52687 -0.87357,0.32594 -2.14157,0.16699 -4.89427,1.08952 -1.09507,0.367 -1.65715,0.64777 -1.8058,1.15189 -0.21093,0.7153 0.59482,1.25551 1.84302,2.88928 1.87194,2.45017 1.37452,2.95609 2.99491,4.69507 1.20291,1.29094 2.10878,1.69013 1.97381,2.29774 -0.191,0.85982 -2.12835,0.61569 -2.52812,1.61265 -0.40793,1.01736 1.06056,2.64068 2.30378,3.61159 2.33299,1.822 4.54849,1.87432 6.60651,2.39129 2.23654,0.56182 5.33281,1.93515 8.67991,5.64173 l 28.51878,33.97664 c -5.73488,-7.17108 -21.19972,-27.2644 -26.71299,-35.12853 -1.59156,-2.2702 -3.15351,-4.66201 -2.70217,-7.42238 0.43451,-2.65759 2.68275,-5.33656 3.9979,-9.66379 0.15362,-0.50537 0.56323,-1.91754 -0.0684,-2.49693 -0.5222,-0.479 -1.28041,0.0476 -1.77461,-0.39234 -0.6629,-0.59009 0.16323,-2.01643 0.32393,-4.27154 0.11331,-1.59017 -0.1618,-2.78408 -0.39839,-3.81079 -0.0713,-0.30954 -1.16626,-4.93109 -2.63375,-4.92545 z"
       fill="#f2f2f2"
       id="path7" />
    <path
       d="m 315.27831,342.98373 -0.66418,-5.92894 0.30346,-0.44947 c 1.40422,-2.07842 2.11993,-4.10818 2.12852,-6.03487 10e-4,-0.30632 -0.0129,-0.61265 -0.0272,-0.9247 -0.0573,-1.23675 -0.12883,-2.77409 0.67277,-4.56623 0.44947,-0.99913 1.71198,-3.31231 3.61004,-3.02602 0.51102,0.0716 0.8975,0.30632 1.19094,0.58116 0.0429,-0.0687 0.0873,-0.13742 0.13455,-0.21185 0.59118,-0.90179 1.05925,-1.28828 1.51015,-1.66045 0.3464,-0.28628 0.70426,-0.58116 1.26538,-1.27969 0.2462,-0.30632 0.43801,-0.57543 0.59977,-0.8016 0.49098,-0.68422 1.13225,-1.50013 2.26308,-1.48581 1.20812,0.0573 1.84081,1.05639 2.26021,1.7177 0.74863,1.17949 1.08788,2.02975 1.31261,2.59373 0.0816,0.20612 0.17463,0.43801 0.22187,0.50959 0.38935,0.57257 3.55422,0.0372 4.74659,-0.15746 2.67819,-0.4466 4.99566,-0.83309 5.95042,0.85599 0.68422,1.20812 0.17606,2.80558 -1.55595,4.87542 -0.53965,0.64414 -1.11365,1.13369 -1.62323,1.51731 0.42227,0.25193 0.80016,0.63841 0.95333,1.24534 v 0 c 0.36072,1.43715 -0.8746,2.87716 -3.67016,4.28567 -0.69424,0.35213 -1.62896,0.82164 -2.93871,1.0478 -0.61694,0.10593 -1.17233,0.13169 -1.64757,0.146 -0.01,0.27483 -0.0744,0.57257 -0.24191,0.87889 -0.49098,0.90179 -1.51301,1.33122 -3.05322,1.22816 -1.6948,-0.0888 -3.09044,-0.41225 -4.32146,-0.69567 -1.075,-0.2462 -2.00113,-0.45519 -2.72829,-0.40652 -1.3484,0.10879 -2.38761,1.18808 -3.60718,2.58801 z"
       fill="#f2f2f2"
       id="path8" />
    <path
       d="m 318.35931,307.6827 -5.56657,2.14634 -0.51174,-0.17953 c -2.36663,-0.83111 -4.51154,-1.00856 -6.3774,-0.52817 -0.29667,0.0763 -0.58934,0.16786 -0.88756,0.26086 -1.18178,0.36909 -2.65069,0.82826 -4.58755,0.50746 -1.08046,-0.18134 -3.63823,-0.81582 -3.84275,-2.72443 -0.0604,-0.51246 0.0686,-0.94585 0.26007,-1.2994 -0.0773,-0.0241 -0.15507,-0.0496 -0.23905,-0.0764 -1.02225,-0.3431 -1.51483,-0.69784 -1.98919,-1.03959 -0.36479,-0.26246 -0.74079,-0.53382 -1.5588,-0.8994 -0.35876,-0.16045 -0.66771,-0.27773 -0.92751,-0.37683 -0.78638,-0.30137 -1.73826,-0.71472 -2.01125,-1.81219 -0.25106,-1.18313 0.55492,-2.04856 1.08823,-2.62199 0.95103,-1.02333 1.68743,-1.56715 2.17596,-1.92759 0.17869,-0.13121 0.37939,-0.28002 0.43664,-0.34387 0.45509,-0.52185 -0.86553,-3.44742 -1.35628,-4.55142 -1.11132,-2.47732 -2.07299,-4.62097 -0.68133,-5.97293 0.99506,-0.96828 2.66917,-0.88194 5.11064,0.26842 0.75995,0.35861 1.37909,0.78967 1.87942,1.18528 0.13658,-0.47236 0.41457,-0.93593 0.9628,-1.23803 v 0 c 1.29865,-0.71345 3.0049,0.1162 5.07645,2.46307 0.51671,0.58222 1.20795,1.36728 1.75894,2.57682 0.25895,0.5699 0.42475,1.10059 0.55914,1.55665 0.26839,-0.06 0.57272,-0.0732 0.91151,0.0111 0.99684,0.24618 1.67146,1.12587 1.96244,2.64184 0.34404,1.66189 0.38512,3.09393 0.42322,4.35659 0.0345,1.10229 0.0673,2.05114 0.2988,2.74218 0.44725,1.27671 1.75484,2.00817 3.41833,2.83276 l 4.21441,2.04244 z"
       fill="#f2f2f2"
       id="path9" />
    <path
       d="m 315.27831,290.21584 -0.66418,-5.92894 0.30346,-0.44947 c 1.40422,-2.07842 2.11993,-4.10818 2.12852,-6.03487 10e-4,-0.30632 -0.0129,-0.61265 -0.0272,-0.9247 -0.0573,-1.23675 -0.12883,-2.77409 0.67277,-4.56623 0.44947,-0.99913 1.71198,-3.31231 3.61004,-3.02602 0.51102,0.0716 0.8975,0.30632 1.19094,0.58116 0.0429,-0.0687 0.0873,-0.13742 0.13455,-0.21185 0.59118,-0.90179 1.05925,-1.28828 1.51015,-1.66045 0.3464,-0.28628 0.70426,-0.58116 1.26538,-1.27969 0.2462,-0.30632 0.43801,-0.57543 0.59977,-0.8016 0.49098,-0.68422 1.13225,-1.50013 2.26308,-1.48581 1.20812,0.0573 1.84081,1.05639 2.26021,1.7177 0.74863,1.17949 1.08788,2.02975 1.31261,2.59373 0.0816,0.20612 0.17463,0.43801 0.22187,0.50959 0.38935,0.57257 3.55422,0.0372 4.74659,-0.15746 2.67819,-0.4466 4.99566,-0.83309 5.95042,0.85599 0.68422,1.20812 0.17606,2.80558 -1.55595,4.87542 -0.53965,0.64414 -1.11365,1.13369 -1.62323,1.51731 0.42227,0.25193 0.80016,0.63841 0.95333,1.24534 v 0 c 0.36072,1.43715 -0.8746,2.87716 -3.67016,4.28567 -0.69424,0.35213 -1.62896,0.82164 -2.93871,1.0478 -0.61694,0.10593 -1.17233,0.13169 -1.64757,0.146 -0.01,0.27483 -0.0744,0.57257 -0.24191,0.87889 -0.49098,0.90179 -1.51301,1.33122 -3.05322,1.22816 -1.6948,-0.0888 -3.09044,-0.41225 -4.32146,-0.69567 -1.075,-0.2462 -2.00113,-0.45519 -2.72829,-0.40652 -1.3484,0.10879 -2.38761,1.18808 -3.60718,2.58801 z"
       fill="#f2f2f2"
       id="path10" />
    <path
       d="m 321.34467,405.30205 -1.24247,-0.77869 -0.3006,-1.43428 0.3006,1.43428 -1.4486,0.16604 c -0.0229,-0.13455 -0.10163,-0.44374 -0.22044,-0.92756 -0.64843,-2.65099 -2.62523,-10.71848 -4.27422,-23.42377 -1.15086,-8.86908 -1.80216,-17.98723 -1.93671,-27.10538 -0.13455,-9.13246 0.29774,-16.04622 0.64414,-21.603 0.26195,-4.1912 0.57973,-8.182 0.89177,-12.06974 0.83022,-10.38639 1.61321,-20.19734 1.03062,-31.05896 -0.12883,-2.42483 -0.39937,-7.47202 -3.34809,-12.8427 -1.71055,-3.11477 -4.06667,-5.88028 -7.00394,-8.21635 l 1.82649,-2.296 c 3.24217,2.58228 5.84878,5.64552 7.74828,9.10383 3.26936,5.95471 3.56424,11.45423 3.70595,14.09663 0.59261,11.05343 -0.19897,20.95886 -1.03778,31.44545 -0.30919,3.87342 -0.62696,7.84705 -0.88748,12.02107 -0.34354,5.50524 -0.77154,12.35888 -0.63841,21.37397 0.13169,9.00936 0.77583,18.01586 1.91095,26.77329 1.62896,12.54497 3.57712,20.49222 4.21696,23.10313 0.34068,1.3942 0.41225,1.68621 0.063,2.23874 z"
       fill="#f2f2f2"
       id="path11" />
    <path
       d="m 299.06032,272.09979 c -0.12024,0 -0.24191,-0.003 -0.36501,-0.0114 -2.4964,-0.13455 -4.80814,-1.62896 -6.87225,-4.44027 -0.96764,-1.32263 -1.46291,-2.83135 -2.45059,-5.8402 -0.15316,-0.46378 -0.8975,-2.81704 -1.34983,-6.05491 -0.2963,-2.11564 -0.25909,-3.00026 0.16032,-3.78181 0.46521,-0.8703 1.21814,-1.47723 2.06554,-1.88661 -0.0372,-0.28056 -0.007,-0.56971 0.11451,-0.86458 0.49957,-1.22243 1.82792,-1.06211 2.5465,-0.98482 0.36358,0.0458 0.81734,0.10593 1.30689,0.0802 0.7701,-0.0372 1.18378,-0.26624 1.81075,-0.60979 0.59977,-0.32923 1.34554,-0.73861 2.45202,-0.96478 2.18148,-0.45519 4.00941,0.16318 4.61204,0.36644 3.1706,1.05639 4.73371,3.52129 6.54302,6.37555 0.36072,0.57257 1.5989,2.65672 2.41624,5.51383 0.58975,2.06125 0.50672,2.97735 0.32923,3.65871 -0.36072,1.39993 -1.21241,2.20152 -3.37529,3.97076 -2.25878,1.85226 -3.39247,2.77982 -4.36583,3.3438 -2.26594,1.30832 -3.68877,2.12995 -5.57825,2.12995 z"
       fill="#f2f2f2"
       id="path12" />
  </g>
  <polygon
     points="63.78924,121.10429 198.09407,153.1852 199.7253,136.87287 64.33299,111.31689 "
     fill="#202046"
     id="polygon12" />
  <path
     d="m 65.96422,112.94813 -1.63123,-1.63123 c 0,0 -7.06867,-3.26247 -7.06867,-3.80621 0,-0.34034 -10.43798,-3.87597 -18.24744,-6.47363 -4.36143,-1.45074 -8.96741,1.42007 -9.58844,5.9743 l -0.97863,7.17659 c -0.58516,4.29116 2.6526,8.15359 6.98002,8.32669 l 19.11576,0.76463 9.24365,-2.17498 z"
     fill="#202046"
     id="path13" />
  <polygon
     points="64.29741,112.60828 64.06112,114.30749 199.45343,139.86346 199.77628,138.50888 "
     fill="#3f3d56"
     id="polygon13" />
  <polygon
     points="64.15006,115.28931 64.06112,117.02621 199.14306,142.43563 199.45343,140.95095 "
     fill="#3f3d56"
     id="polygon14" />
  <polygon
     points="64.04386,117.24126 64.06112,118.65744 198.83269,145.51809 198.90968,143.12593 "
     fill="#3f3d56"
     id="polygon15" />
  <polygon
     points="63.84712,119.19269 63.73136,119.72369 198.47134,149.09809 198.36594,146.93214 "
     fill="#3f3d56"
     id="polygon16" />
  <polygon
     points="64.04943,120.09008 63.9289,120.62002 198.46895,151.26882 198.36594,149.65086 "
     fill="#3f3d56"
     id="polygon17" />
  <path
     d="m 120.67046,60.81624 6.73686,-3.73035 2.92209,59.66844 -1.01899,7.34055 c 0,0 -17.00806,-46.89874 -8.63997,-63.27864 z"
     fill="#3f3d56"
     id="path17" />
  <circle
     cx="144.1627"
     cy="22.756865"
     r="16.85607"
     fill="#a0616a"
     id="circle17"
     transform="rotate(1.0541825)"
     style="fill:#ffdbac;fill-opacity:1" />
  <path
     d="m 129.31042,35.46457 4.02975,3.21695 -4.57349,-17.3543 c 0,0 12.77799,-0.27187 13.86548,-7.34055 0,0 10.05927,-0.27187 12.77799,-0.27187 2.71872,0 3.94541,17.98941 3.94541,17.98941 0,0 5.29824,-14.72694 -0.1392,-22.33936 -5.43744,-7.61242 -3.53434,-2.99059 -4.62183,-5.70931 -1.08749,-2.71872 -12.23425,-5.21909 -19.30292,-2.44685 -7.06867,2.77224 -7.34055,6.72402 -9.51552,6.76041 -2.17497,0.03639 -9.7874,10.91128 -2.71872,19.61118 7.06868,8.6999 6.25306,7.88429 6.25306,7.88429 z"
     fill="#2f2e41"
     id="path18" />
  <path
     d="m 180.80675,146.07775 c 1.99792,-1.59415 3.47014,-3.50738 4.29983,-5.39844 l 19.99208,-13.98418 -6.93252,-9.31837 -19.53356,15.18884 c -2.02809,0.38914 -4.22041,1.39987 -6.21833,2.99402 -4.56425,3.64183 -6.38554,8.94866 -4.06801,11.85316 2.31753,2.90451 7.89626,2.30679 12.4605,-1.33503 v 0 z"
     fill="#a0616a"
     id="path19"
     style="fill:#ffdbac;fill-opacity:1" />
  <path
     d="m 104.21398,124.80635 c -1.48247,2.08213 -2.37176,4.32647 -2.64939,6.37279 l -15.37536,18.94303 9.22788,7.05253 14.60323,-19.97515 c 1.84287,-0.93189 3.67269,-2.50656 5.15516,-4.58869 3.3867,-4.75663 3.67832,-10.35971 0.65138,-12.51486 -3.02694,-2.15516 -8.22618,-0.0463 -11.61288,4.71034 v 0 z"
     fill="#a0616a"
     id="path20"
     style="fill:#ffdbac;fill-opacity:1" />
  <path
     d="m 174.44119,67.27361 c 0,0 4.8937,-8.15616 9.7874,-3.26247 3.87238,3.87238 25.10866,28.51334 33.80402,38.62982 2.39788,2.78978 3.71433,6.34437 3.71433,10.02305 v 0 c 0,5.69026 -3.14162,10.91556 -8.16725,13.58423 l -27.17612,14.43083 -7.61242,-11.41863 23.381,-16.85607 -35.88712,-19.57479 8.15616,-25.55598 z"
     fill="#e6e6e6"
     id="path21" />
  <polyline
     points="88.5082 142.43563 84.17965 155.0883 96.68577 161.61323 106.20129 155.0883 112.18248 141.22282 94.51079 136.05725"
     fill="#e6e6e6"
     id="polyline21" />
  <path
     d="m 290.69063,21.16735 -41.07854,11.1587 5.97689,26.65502 c -1.93262,-1.29685 -4.25723,-2.05486 -6.75952,-2.05486 -6.70938,0 -12.14836,5.43903 -12.14836,12.14836 0,6.70933 5.43898,12.14832 12.14836,12.14832 6.70938,0 12.14832,-5.43898 12.14832,-12.14832 0,-2.332 -0.66864,-4.50276 -1.80777,-6.35279 l -4.73867,-21.13299 35.43803,-11.14159 3.24107,15.74198 c -1.94524,-1.32331 -4.29356,-2.09818 -6.82361,-2.09818 -6.70934,0 -12.14836,5.43903 -12.14836,12.14836 0,6.70933 5.43903,12.14832 12.14836,12.14832 6.70933,0 12.14832,-5.43898 12.14832,-12.14832 0,-2.35686 -0.68219,-4.54947 -1.84382,-6.41211 z"
     fill="#202046"
     id="path22" />
  <path
     d="m 330.9778,46.08421 c -6.6397,0 -12.0222,5.3825 -12.0222,12.0222 0,1.87694 0.44247,3.64632 1.20951,5.22914 l 6.86155,28.30398 3.89489,-0.94413 -5.29316,-21.83427 c 1.61272,0.80385 3.42497,1.26748 5.34942,1.26748 6.6397,0 12.0222,-5.38256 12.0222,-12.0222 0,-6.63964 -5.3825,-12.0222 -12.0222,-12.0222 z"
     fill="#202046"
     id="path23" />
  <path
     d="m 379.90261,108.46605 -6.81163,-27.24315 -4.13536,0.97192 5.328,21.30922 c -1.63867,-0.74197 -3.45977,-1.16832 -5.38773,-1.16832 -7.04964,0 -12.76446,5.54095 -12.76446,12.37612 0,6.83517 5.71482,12.37612 12.76446,12.37612 7.04964,0 12.76446,-5.54101 12.76446,-12.37612 0,-2.28112 -0.64755,-4.41084 -1.75774,-6.24578 z"
     fill="#202046"
     id="path24" />
  <path
     d="m 397.72474,406.28697 v 0 c 0,0.46394 -0.37609,0.84003 -0.84003,0.84003 H 0 v -1.68005 h 396.88472 c 0.46393,0 0.84003,0.37609 0.84003,0.84003 z"
     fill="#e6e6e6"
     id="path25" />
</svg>
